<?xml version="1.0" encoding="UTF-8" standalone="no"?>
<svg
   width="24"
   height="24"
   viewBox="0 0 24 24"
   version="1.1"
   id="svg2"
   sodipodi:docname="reshot-icon-chevron-arrow-upward-circle-YTGJ4WADFL.svg"
   inkscape:version="1.3 (0e150ed6c4, 2023-07-21)"
   xmlns:inkscape="http://www.inkscape.org/namespaces/inkscape"
   xmlns:sodipodi="http://sodipodi.sourceforge.net/DTD/sodipodi-0.dtd"
   xmlns="http://www.w3.org/2000/svg"
   xmlns:svg="http://www.w3.org/2000/svg">
  <defs
     id="defs2" />
  <sodipodi:namedview
     id="namedview2"
     pagecolor="#ffffff"
     bordercolor="#999999"
     borderopacity="1"
     inkscape:showpageshadow="2"
     inkscape:pageopacity="0"
     inkscape:pagecheckerboard="0"
     inkscape:deskcolor="#d1d1d1"
     inkscape:zoom="34.958333"
     inkscape:cx="12"
     inkscape:cy="12"
     inkscape:window-width="1920"
     inkscape:window-height="1017"
     inkscape:window-x="-8"
     inkscape:window-y="-8"
     inkscape:window-maximized="1"
     inkscape:current-layer="svg2" />
  <g
     id="g2"
     style="stroke-width:0.833333"
     transform="matrix(1.2,0,0,1.2,-2.4,-2.4)">
    <path
       d="M 12,2 A 10,10 0 1 0 22,12 10.011,10.011 0 0 0 12,2 Z m 0,18 a 8,8 0 1 1 8,-8 8.009,8.009 0 0 1 -8,8 z"
       id="path1"
       style="stroke-width:0.833333" />
    <polygon
       points="7.293,15.293 8.707,16.707 12,13.414 15.293,16.707 16.707,15.293 12,10.586 "
       id="polygon1"
       style="stroke-width:0.833333" />
    <polygon
       points="7.293,11.293 8.707,12.707 12,9.414 15.293,12.707 16.707,11.293 12,6.586 "
       id="polygon2"
       style="stroke-width:0.833333" />
  </g>
</svg>
